<mxfile host="app.diagrams.net" modified="2021-01-30T14:18:31.157Z" agent="5.0 (Windows NT 10.0; Win64; x64) AppleWebKit/537.36 (KHTML, like Gecko) Chrome/87.0.4280.141 Safari/537.36" etag="js-JHxF6VpxeXEyyxBoZ" version="14.2.7" type="github">
  <diagram id="uqXQGn0c8_B2Hg9Xkndz" name="Page-1">
    <mxGraphModel dx="1038" dy="548" grid="1" gridSize="10" guides="1" tooltips="1" connect="1" arrows="1" fold="1" page="1" pageScale="1" pageWidth="827" pageHeight="1169" math="0" shadow="0">
      <root>
        <mxCell id="0" />
        <mxCell id="1" parent="0" />
        <mxCell id="0nBrglPBlWi57Pm5X8KZ-2" value="&lt;font style=&quot;font-size: 18px&quot;&gt;Mutli-head Attention&lt;/font&gt;" style="rounded=1;whiteSpace=wrap;html=1;fillColor=#d5e8d4;strokeColor=#82b366;" vertex="1" parent="1">
          <mxGeometry x="80" y="450" width="240" height="40" as="geometry" />
        </mxCell>
        <mxCell id="0nBrglPBlWi57Pm5X8KZ-3" value="&lt;font style=&quot;font-size: 14px&quot;&gt;Add &amp;amp; Normalize&lt;/font&gt;" style="rounded=1;whiteSpace=wrap;html=1;fillColor=#fff2cc;strokeColor=#d6b656;" vertex="1" parent="1">
          <mxGeometry x="80" y="400" width="240" height="30" as="geometry" />
        </mxCell>
        <mxCell id="0nBrglPBlWi57Pm5X8KZ-4" value="&lt;font style=&quot;font-size: 18px&quot;&gt;Feed Forward&lt;/font&gt;" style="rounded=1;whiteSpace=wrap;html=1;fillColor=#e1d5e7;strokeColor=#9673a6;" vertex="1" parent="1">
          <mxGeometry x="80" y="290" width="240" height="40" as="geometry" />
        </mxCell>
        <mxCell id="0nBrglPBlWi57Pm5X8KZ-5" value="&lt;font style=&quot;font-size: 14px&quot;&gt;Add &amp;amp; Normalize&lt;/font&gt;" style="rounded=1;whiteSpace=wrap;html=1;fillColor=#fff2cc;strokeColor=#d6b656;" vertex="1" parent="1">
          <mxGeometry x="80" y="240" width="240" height="30" as="geometry" />
        </mxCell>
        <mxCell id="0nBrglPBlWi57Pm5X8KZ-8" value="" style="endArrow=classic;html=1;entryX=0.25;entryY=1;entryDx=0;entryDy=0;exitX=0.25;exitY=0;exitDx=0;exitDy=0;" edge="1" parent="1" source="0nBrglPBlWi57Pm5X8KZ-2" target="0nBrglPBlWi57Pm5X8KZ-3">
          <mxGeometry width="50" height="50" relative="1" as="geometry">
            <mxPoint x="120" y="480" as="sourcePoint" />
            <mxPoint x="170" y="430" as="targetPoint" />
          </mxGeometry>
        </mxCell>
        <mxCell id="0nBrglPBlWi57Pm5X8KZ-9" value="" style="endArrow=classic;html=1;entryX=0.75;entryY=1;entryDx=0;entryDy=0;exitX=0.75;exitY=0;exitDx=0;exitDy=0;" edge="1" parent="1" source="0nBrglPBlWi57Pm5X8KZ-2" target="0nBrglPBlWi57Pm5X8KZ-3">
          <mxGeometry width="50" height="50" relative="1" as="geometry">
            <mxPoint x="150" y="460" as="sourcePoint" />
            <mxPoint x="150" y="440" as="targetPoint" />
          </mxGeometry>
        </mxCell>
        <mxCell id="0nBrglPBlWi57Pm5X8KZ-10" value="" style="endArrow=classic;html=1;entryX=0.25;entryY=1;entryDx=0;entryDy=0;exitX=0.25;exitY=0;exitDx=0;exitDy=0;" edge="1" parent="1" source="0nBrglPBlWi57Pm5X8KZ-3" target="0nBrglPBlWi57Pm5X8KZ-4">
          <mxGeometry width="50" height="50" relative="1" as="geometry">
            <mxPoint x="390" y="430" as="sourcePoint" />
            <mxPoint x="440" y="380" as="targetPoint" />
          </mxGeometry>
        </mxCell>
        <mxCell id="0nBrglPBlWi57Pm5X8KZ-11" value="" style="endArrow=classic;html=1;entryX=0.75;entryY=1;entryDx=0;entryDy=0;exitX=0.75;exitY=0;exitDx=0;exitDy=0;" edge="1" parent="1" source="0nBrglPBlWi57Pm5X8KZ-3" target="0nBrglPBlWi57Pm5X8KZ-4">
          <mxGeometry width="50" height="50" relative="1" as="geometry">
            <mxPoint x="430" y="400" as="sourcePoint" />
            <mxPoint x="480" y="350" as="targetPoint" />
          </mxGeometry>
        </mxCell>
        <mxCell id="0nBrglPBlWi57Pm5X8KZ-12" value="" style="endArrow=classic;html=1;entryX=0.25;entryY=1;entryDx=0;entryDy=0;exitX=0.25;exitY=0;exitDx=0;exitDy=0;" edge="1" parent="1" source="0nBrglPBlWi57Pm5X8KZ-4" target="0nBrglPBlWi57Pm5X8KZ-5">
          <mxGeometry width="50" height="50" relative="1" as="geometry">
            <mxPoint x="390" y="390" as="sourcePoint" />
            <mxPoint x="440" y="340" as="targetPoint" />
          </mxGeometry>
        </mxCell>
        <mxCell id="0nBrglPBlWi57Pm5X8KZ-13" value="" style="endArrow=classic;html=1;entryX=0.75;entryY=1;entryDx=0;entryDy=0;exitX=0.75;exitY=0;exitDx=0;exitDy=0;" edge="1" parent="1" source="0nBrglPBlWi57Pm5X8KZ-4" target="0nBrglPBlWi57Pm5X8KZ-5">
          <mxGeometry width="50" height="50" relative="1" as="geometry">
            <mxPoint x="390" y="390" as="sourcePoint" />
            <mxPoint x="440" y="340" as="targetPoint" />
          </mxGeometry>
        </mxCell>
        <mxCell id="0nBrglPBlWi57Pm5X8KZ-14" value="&lt;font style=&quot;font-size: 18px&quot;&gt;Mutli-head Attention&lt;/font&gt;" style="rounded=1;whiteSpace=wrap;html=1;fillColor=#d5e8d4;strokeColor=#82b366;" vertex="1" parent="1">
          <mxGeometry x="480" y="530" width="240" height="40" as="geometry" />
        </mxCell>
        <mxCell id="0nBrglPBlWi57Pm5X8KZ-15" value="&lt;font style=&quot;font-size: 14px&quot;&gt;Add &amp;amp; Normalize&lt;/font&gt;" style="rounded=1;whiteSpace=wrap;html=1;fillColor=#fff2cc;strokeColor=#d6b656;" vertex="1" parent="1">
          <mxGeometry x="480" y="480" width="240" height="30" as="geometry" />
        </mxCell>
        <mxCell id="0nBrglPBlWi57Pm5X8KZ-16" value="&lt;font style=&quot;font-size: 18px&quot;&gt;Mutli-head Attention&lt;/font&gt;" style="rounded=1;whiteSpace=wrap;html=1;fillColor=#d5e8d4;strokeColor=#82b366;" vertex="1" parent="1">
          <mxGeometry x="480" y="410" width="240" height="40" as="geometry" />
        </mxCell>
        <mxCell id="0nBrglPBlWi57Pm5X8KZ-17" value="&lt;font style=&quot;font-size: 14px&quot;&gt;Add &amp;amp; Normalize&lt;/font&gt;" style="rounded=1;whiteSpace=wrap;html=1;fillColor=#fff2cc;strokeColor=#d6b656;" vertex="1" parent="1">
          <mxGeometry x="480" y="360" width="240" height="30" as="geometry" />
        </mxCell>
        <mxCell id="0nBrglPBlWi57Pm5X8KZ-18" value="&lt;font style=&quot;font-size: 18px&quot;&gt;Feed Forward&lt;/font&gt;" style="rounded=1;whiteSpace=wrap;html=1;fillColor=#e1d5e7;strokeColor=#9673a6;" vertex="1" parent="1">
          <mxGeometry x="480" y="290" width="240" height="40" as="geometry" />
        </mxCell>
        <mxCell id="0nBrglPBlWi57Pm5X8KZ-19" value="&lt;font style=&quot;font-size: 14px&quot;&gt;Add &amp;amp; Normalize&lt;/font&gt;" style="rounded=1;whiteSpace=wrap;html=1;fillColor=#fff2cc;strokeColor=#d6b656;" vertex="1" parent="1">
          <mxGeometry x="480" y="240" width="240" height="30" as="geometry" />
        </mxCell>
        <mxCell id="0nBrglPBlWi57Pm5X8KZ-20" value="" style="endArrow=classic;html=1;entryX=0.25;entryY=1;entryDx=0;entryDy=0;exitX=0.25;exitY=0;exitDx=0;exitDy=0;" edge="1" parent="1" source="0nBrglPBlWi57Pm5X8KZ-14" target="0nBrglPBlWi57Pm5X8KZ-15">
          <mxGeometry width="50" height="50" relative="1" as="geometry">
            <mxPoint x="390" y="400" as="sourcePoint" />
            <mxPoint x="440" y="350" as="targetPoint" />
          </mxGeometry>
        </mxCell>
        <mxCell id="0nBrglPBlWi57Pm5X8KZ-21" value="" style="endArrow=classic;html=1;entryX=0.75;entryY=1;entryDx=0;entryDy=0;exitX=0.75;exitY=0;exitDx=0;exitDy=0;" edge="1" parent="1" source="0nBrglPBlWi57Pm5X8KZ-14" target="0nBrglPBlWi57Pm5X8KZ-15">
          <mxGeometry width="50" height="50" relative="1" as="geometry">
            <mxPoint x="390" y="400" as="sourcePoint" />
            <mxPoint x="440" y="350" as="targetPoint" />
          </mxGeometry>
        </mxCell>
        <mxCell id="0nBrglPBlWi57Pm5X8KZ-22" value="" style="endArrow=classic;html=1;entryX=0.25;entryY=1;entryDx=0;entryDy=0;exitX=0.25;exitY=0;exitDx=0;exitDy=0;" edge="1" parent="1" source="0nBrglPBlWi57Pm5X8KZ-15" target="0nBrglPBlWi57Pm5X8KZ-16">
          <mxGeometry width="50" height="50" relative="1" as="geometry">
            <mxPoint x="390" y="400" as="sourcePoint" />
            <mxPoint x="440" y="350" as="targetPoint" />
          </mxGeometry>
        </mxCell>
        <mxCell id="0nBrglPBlWi57Pm5X8KZ-23" value="" style="endArrow=classic;html=1;entryX=0.75;entryY=1;entryDx=0;entryDy=0;exitX=0.75;exitY=0;exitDx=0;exitDy=0;" edge="1" parent="1" source="0nBrglPBlWi57Pm5X8KZ-15" target="0nBrglPBlWi57Pm5X8KZ-16">
          <mxGeometry width="50" height="50" relative="1" as="geometry">
            <mxPoint x="390" y="400" as="sourcePoint" />
            <mxPoint x="440" y="350" as="targetPoint" />
          </mxGeometry>
        </mxCell>
        <mxCell id="0nBrglPBlWi57Pm5X8KZ-24" value="" style="endArrow=classic;html=1;entryX=0.25;entryY=1;entryDx=0;entryDy=0;exitX=0.25;exitY=0;exitDx=0;exitDy=0;" edge="1" parent="1" source="0nBrglPBlWi57Pm5X8KZ-16" target="0nBrglPBlWi57Pm5X8KZ-17">
          <mxGeometry width="50" height="50" relative="1" as="geometry">
            <mxPoint x="390" y="400" as="sourcePoint" />
            <mxPoint x="440" y="350" as="targetPoint" />
          </mxGeometry>
        </mxCell>
        <mxCell id="0nBrglPBlWi57Pm5X8KZ-25" value="" style="endArrow=classic;html=1;entryX=0.75;entryY=1;entryDx=0;entryDy=0;exitX=0.75;exitY=0;exitDx=0;exitDy=0;" edge="1" parent="1" source="0nBrglPBlWi57Pm5X8KZ-16" target="0nBrglPBlWi57Pm5X8KZ-17">
          <mxGeometry width="50" height="50" relative="1" as="geometry">
            <mxPoint x="390" y="400" as="sourcePoint" />
            <mxPoint x="440" y="350" as="targetPoint" />
          </mxGeometry>
        </mxCell>
        <mxCell id="0nBrglPBlWi57Pm5X8KZ-26" value="" style="endArrow=classic;html=1;entryX=0.25;entryY=1;entryDx=0;entryDy=0;exitX=0.25;exitY=0;exitDx=0;exitDy=0;" edge="1" parent="1" source="0nBrglPBlWi57Pm5X8KZ-17" target="0nBrglPBlWi57Pm5X8KZ-18">
          <mxGeometry width="50" height="50" relative="1" as="geometry">
            <mxPoint x="390" y="400" as="sourcePoint" />
            <mxPoint x="440" y="350" as="targetPoint" />
          </mxGeometry>
        </mxCell>
        <mxCell id="0nBrglPBlWi57Pm5X8KZ-27" value="" style="endArrow=classic;html=1;entryX=0.75;entryY=1;entryDx=0;entryDy=0;exitX=0.75;exitY=0;exitDx=0;exitDy=0;" edge="1" parent="1" source="0nBrglPBlWi57Pm5X8KZ-17" target="0nBrglPBlWi57Pm5X8KZ-18">
          <mxGeometry width="50" height="50" relative="1" as="geometry">
            <mxPoint x="390" y="400" as="sourcePoint" />
            <mxPoint x="440" y="350" as="targetPoint" />
          </mxGeometry>
        </mxCell>
        <mxCell id="0nBrglPBlWi57Pm5X8KZ-28" value="" style="endArrow=classic;html=1;entryX=0.25;entryY=1;entryDx=0;entryDy=0;exitX=0.25;exitY=0;exitDx=0;exitDy=0;" edge="1" parent="1" source="0nBrglPBlWi57Pm5X8KZ-18" target="0nBrglPBlWi57Pm5X8KZ-19">
          <mxGeometry width="50" height="50" relative="1" as="geometry">
            <mxPoint x="390" y="400" as="sourcePoint" />
            <mxPoint x="440" y="350" as="targetPoint" />
          </mxGeometry>
        </mxCell>
        <mxCell id="0nBrglPBlWi57Pm5X8KZ-29" value="" style="endArrow=classic;html=1;entryX=0.75;entryY=1;entryDx=0;entryDy=0;exitX=0.75;exitY=0;exitDx=0;exitDy=0;" edge="1" parent="1" source="0nBrglPBlWi57Pm5X8KZ-18" target="0nBrglPBlWi57Pm5X8KZ-19">
          <mxGeometry width="50" height="50" relative="1" as="geometry">
            <mxPoint x="390" y="400" as="sourcePoint" />
            <mxPoint x="440" y="350" as="targetPoint" />
          </mxGeometry>
        </mxCell>
        <mxCell id="0nBrglPBlWi57Pm5X8KZ-32" value="" style="endArrow=classic;html=1;fillColor=#000000;entryX=0.25;entryY=1;entryDx=0;entryDy=0;" edge="1" parent="1" target="0nBrglPBlWi57Pm5X8KZ-2">
          <mxGeometry width="50" height="50" relative="1" as="geometry">
            <mxPoint x="140" y="540" as="sourcePoint" />
            <mxPoint x="440" y="450" as="targetPoint" />
          </mxGeometry>
        </mxCell>
        <mxCell id="0nBrglPBlWi57Pm5X8KZ-33" value="" style="endArrow=classic;html=1;fillColor=#000000;entryX=0.5;entryY=1;entryDx=0;entryDy=0;" edge="1" parent="1" target="0nBrglPBlWi57Pm5X8KZ-2">
          <mxGeometry width="50" height="50" relative="1" as="geometry">
            <mxPoint x="200" y="540" as="sourcePoint" />
            <mxPoint x="440" y="450" as="targetPoint" />
          </mxGeometry>
        </mxCell>
        <mxCell id="0nBrglPBlWi57Pm5X8KZ-34" value="" style="endArrow=classic;html=1;fillColor=#000000;entryX=0.75;entryY=1;entryDx=0;entryDy=0;" edge="1" parent="1" target="0nBrglPBlWi57Pm5X8KZ-2">
          <mxGeometry width="50" height="50" relative="1" as="geometry">
            <mxPoint x="260" y="540" as="sourcePoint" />
            <mxPoint x="440" y="450" as="targetPoint" />
          </mxGeometry>
        </mxCell>
        <mxCell id="0nBrglPBlWi57Pm5X8KZ-36" value="" style="endArrow=classic;html=1;fillColor=#000000;entryX=0;entryY=0.5;entryDx=0;entryDy=0;" edge="1" parent="1" target="0nBrglPBlWi57Pm5X8KZ-3">
          <mxGeometry width="50" height="50" relative="1" as="geometry">
            <mxPoint x="260" y="520" as="sourcePoint" />
            <mxPoint x="440" y="450" as="targetPoint" />
            <Array as="points">
              <mxPoint x="40" y="520" />
              <mxPoint x="40" y="415" />
            </Array>
          </mxGeometry>
        </mxCell>
        <mxCell id="0nBrglPBlWi57Pm5X8KZ-37" value="" style="endArrow=classic;html=1;fillColor=#000000;entryX=0;entryY=0.5;entryDx=0;entryDy=0;" edge="1" parent="1" target="0nBrglPBlWi57Pm5X8KZ-5">
          <mxGeometry width="50" height="50" relative="1" as="geometry">
            <mxPoint x="260" y="360" as="sourcePoint" />
            <mxPoint x="440" y="450" as="targetPoint" />
            <Array as="points">
              <mxPoint x="40" y="360" />
              <mxPoint x="40" y="255" />
            </Array>
          </mxGeometry>
        </mxCell>
        <mxCell id="0nBrglPBlWi57Pm5X8KZ-38" value="" style="endArrow=classic;html=1;fillColor=#000000;entryX=0.5;entryY=1;entryDx=0;entryDy=0;" edge="1" parent="1" target="0nBrglPBlWi57Pm5X8KZ-14">
          <mxGeometry width="50" height="50" relative="1" as="geometry">
            <mxPoint x="600" y="620" as="sourcePoint" />
            <mxPoint x="440" y="450" as="targetPoint" />
          </mxGeometry>
        </mxCell>
        <mxCell id="0nBrglPBlWi57Pm5X8KZ-39" value="" style="endArrow=classic;html=1;fillColor=#000000;entryX=0.25;entryY=1;entryDx=0;entryDy=0;" edge="1" parent="1" target="0nBrglPBlWi57Pm5X8KZ-14">
          <mxGeometry width="50" height="50" relative="1" as="geometry">
            <mxPoint x="540" y="620" as="sourcePoint" />
            <mxPoint x="440" y="450" as="targetPoint" />
          </mxGeometry>
        </mxCell>
        <mxCell id="0nBrglPBlWi57Pm5X8KZ-40" value="" style="endArrow=classic;html=1;fillColor=#000000;entryX=0.75;entryY=1;entryDx=0;entryDy=0;" edge="1" parent="1" target="0nBrglPBlWi57Pm5X8KZ-14">
          <mxGeometry width="50" height="50" relative="1" as="geometry">
            <mxPoint x="660" y="620" as="sourcePoint" />
            <mxPoint x="440" y="450" as="targetPoint" />
          </mxGeometry>
        </mxCell>
        <mxCell id="0nBrglPBlWi57Pm5X8KZ-41" value="" style="endArrow=classic;html=1;fillColor=#000000;entryX=0;entryY=0.5;entryDx=0;entryDy=0;" edge="1" parent="1" target="0nBrglPBlWi57Pm5X8KZ-15">
          <mxGeometry width="50" height="50" relative="1" as="geometry">
            <mxPoint x="660" y="600" as="sourcePoint" />
            <mxPoint x="440" y="450" as="targetPoint" />
            <Array as="points">
              <mxPoint x="440" y="600" />
              <mxPoint x="440" y="495" />
            </Array>
          </mxGeometry>
        </mxCell>
        <mxCell id="0nBrglPBlWi57Pm5X8KZ-42" value="" style="endArrow=classic;html=1;fillColor=#000000;entryX=0;entryY=0.5;entryDx=0;entryDy=0;" edge="1" parent="1" target="0nBrglPBlWi57Pm5X8KZ-17">
          <mxGeometry width="50" height="50" relative="1" as="geometry">
            <mxPoint x="660" y="470" as="sourcePoint" />
            <mxPoint x="440" y="450" as="targetPoint" />
            <Array as="points">
              <mxPoint x="440" y="470" />
              <mxPoint x="440" y="375" />
            </Array>
          </mxGeometry>
        </mxCell>
        <mxCell id="0nBrglPBlWi57Pm5X8KZ-43" value="" style="endArrow=classic;html=1;fillColor=#000000;entryX=0;entryY=0.5;entryDx=0;entryDy=0;" edge="1" parent="1" target="0nBrglPBlWi57Pm5X8KZ-19">
          <mxGeometry width="50" height="50" relative="1" as="geometry">
            <mxPoint x="660" y="350" as="sourcePoint" />
            <mxPoint x="440" y="450" as="targetPoint" />
            <Array as="points">
              <mxPoint x="440" y="350" />
              <mxPoint x="440" y="255" />
            </Array>
          </mxGeometry>
        </mxCell>
        <mxCell id="0nBrglPBlWi57Pm5X8KZ-44" value="&lt;font style=&quot;font-size: 18px&quot;&gt;......&lt;/font&gt;" style="rounded=1;whiteSpace=wrap;html=1;" vertex="1" parent="1">
          <mxGeometry x="80" y="140" width="240" height="40" as="geometry" />
        </mxCell>
        <mxCell id="0nBrglPBlWi57Pm5X8KZ-47" value="&lt;font style=&quot;font-size: 18px&quot;&gt;......&lt;/font&gt;" style="rounded=1;whiteSpace=wrap;html=1;" vertex="1" parent="1">
          <mxGeometry x="480" y="140" width="240" height="40" as="geometry" />
        </mxCell>
        <mxCell id="0nBrglPBlWi57Pm5X8KZ-50" value="" style="endArrow=none;html=1;fillColor=#000000;" edge="1" parent="1">
          <mxGeometry width="50" height="50" relative="1" as="geometry">
            <mxPoint x="140" y="540" as="sourcePoint" />
            <mxPoint x="260" y="540" as="targetPoint" />
          </mxGeometry>
        </mxCell>
        <mxCell id="0nBrglPBlWi57Pm5X8KZ-51" value="" style="endArrow=none;html=1;fillColor=#000000;" edge="1" parent="1">
          <mxGeometry width="50" height="50" relative="1" as="geometry">
            <mxPoint x="200" y="570" as="sourcePoint" />
            <mxPoint x="200" y="540" as="targetPoint" />
          </mxGeometry>
        </mxCell>
        <mxCell id="0nBrglPBlWi57Pm5X8KZ-52" value="" style="endArrow=none;html=1;fillColor=#000000;" edge="1" parent="1">
          <mxGeometry width="50" height="50" relative="1" as="geometry">
            <mxPoint x="540" y="620" as="sourcePoint" />
            <mxPoint x="660" y="620" as="targetPoint" />
          </mxGeometry>
        </mxCell>
        <mxCell id="0nBrglPBlWi57Pm5X8KZ-53" value="" style="endArrow=none;html=1;fillColor=#000000;" edge="1" parent="1">
          <mxGeometry width="50" height="50" relative="1" as="geometry">
            <mxPoint x="600" y="660" as="sourcePoint" />
            <mxPoint x="600" y="620" as="targetPoint" />
          </mxGeometry>
        </mxCell>
        <mxCell id="0nBrglPBlWi57Pm5X8KZ-54" value="" style="endArrow=classic;html=1;fillColor=#000000;entryX=0.5;entryY=1;entryDx=0;entryDy=0;" edge="1" parent="1" source="0nBrglPBlWi57Pm5X8KZ-5" target="0nBrglPBlWi57Pm5X8KZ-44">
          <mxGeometry width="50" height="50" relative="1" as="geometry">
            <mxPoint x="390" y="390" as="sourcePoint" />
            <mxPoint x="440" y="340" as="targetPoint" />
          </mxGeometry>
        </mxCell>
        <mxCell id="0nBrglPBlWi57Pm5X8KZ-55" value="" style="endArrow=classic;html=1;fillColor=#000000;entryX=0.5;entryY=1;entryDx=0;entryDy=0;" edge="1" parent="1" source="0nBrglPBlWi57Pm5X8KZ-19" target="0nBrglPBlWi57Pm5X8KZ-47">
          <mxGeometry width="50" height="50" relative="1" as="geometry">
            <mxPoint x="390" y="390" as="sourcePoint" />
            <mxPoint x="440" y="340" as="targetPoint" />
          </mxGeometry>
        </mxCell>
        <mxCell id="0nBrglPBlWi57Pm5X8KZ-56" value="" style="endArrow=classic;html=1;fillColor=#000000;exitX=0.472;exitY=-0.065;exitDx=0;exitDy=0;exitPerimeter=0;entryX=0;entryY=0.5;entryDx=0;entryDy=0;" edge="1" parent="1" source="0nBrglPBlWi57Pm5X8KZ-44" target="0nBrglPBlWi57Pm5X8KZ-16">
          <mxGeometry width="50" height="50" relative="1" as="geometry">
            <mxPoint x="390" y="390" as="sourcePoint" />
            <mxPoint x="440" y="340" as="targetPoint" />
            <Array as="points">
              <mxPoint x="193" y="80" />
              <mxPoint x="400" y="80" />
              <mxPoint x="400" y="430" />
            </Array>
          </mxGeometry>
        </mxCell>
        <mxCell id="0nBrglPBlWi57Pm5X8KZ-57" value="" style="strokeWidth=2;html=1;shape=mxgraph.flowchart.annotation_2;align=left;labelPosition=right;pointerEvents=1;rotation=-180;" vertex="1" parent="1">
          <mxGeometry x="320" y="160" width="50" height="310" as="geometry" />
        </mxCell>
        <mxCell id="0nBrglPBlWi57Pm5X8KZ-59" value="&lt;font style=&quot;font-size: 16px&quot;&gt;Outputs&lt;/font&gt;" style="rounded=0;whiteSpace=wrap;html=1;strokeWidth=1;" vertex="1" parent="1">
          <mxGeometry x="560" y="640" width="80" height="35" as="geometry" />
        </mxCell>
        <mxCell id="0nBrglPBlWi57Pm5X8KZ-58" value="&lt;font style=&quot;font-size: 16px&quot;&gt;Inputs&lt;/font&gt;" style="rounded=0;whiteSpace=wrap;html=1;strokeWidth=1;" vertex="1" parent="1">
          <mxGeometry x="160" y="567" width="80" height="35" as="geometry" />
        </mxCell>
        <mxCell id="0nBrglPBlWi57Pm5X8KZ-61" value="" style="endArrow=classic;html=1;fillColor=#000000;exitX=0.5;exitY=0;exitDx=0;exitDy=0;" edge="1" parent="1" source="0nBrglPBlWi57Pm5X8KZ-47">
          <mxGeometry width="50" height="50" relative="1" as="geometry">
            <mxPoint x="390" y="130" as="sourcePoint" />
            <mxPoint x="600" y="80" as="targetPoint" />
          </mxGeometry>
        </mxCell>
        <mxCell id="0nBrglPBlWi57Pm5X8KZ-62" value="&lt;font style=&quot;font-size: 16px&quot;&gt;Outputs Probabilities&lt;/font&gt;" style="rounded=0;whiteSpace=wrap;html=1;strokeWidth=1;" vertex="1" parent="1">
          <mxGeometry x="535" y="34" width="130" height="45" as="geometry" />
        </mxCell>
      </root>
    </mxGraphModel>
  </diagram>
</mxfile>
